<?xml version="1.0" encoding="UTF-8"?>
<svg id="Layer_2" data-name="Layer 2" xmlns="http://www.w3.org/2000/svg" xmlns:xlink="http://www.w3.org/1999/xlink" viewBox="0 0 731.32 105.15">
  <defs>
    <style>
      .cls-1 {
        fill: #94abf0;
      }
    </style>
  </defs>
  <g id="Layer_1-2" data-name="Layer 1">
    <g>
      <g>
        <path class="cls-1" d="M189.14,63.61c0,3-.93,5.67-2.78,8-1.85,2.33-4.49,4.13-7.93,5.39-2.79,1.02-6.02,1.72-9.68,2.09-3.66.38-7.68.56-12.05.56-2.36,0-4.83-.03-7.4-.1-2.58-.07-4.48-.13-5.71-.18.05-4.4.09-8.88.12-13.46.03-4.57.04-9.49.04-14.75,0-5.74-.03-11.35-.08-16.84-.05-5.49-.08-8.38-.08-8.67.46,0,1.94-.05,4.46-.16,2.52-.11,5.23-.16,8.12-.16,4.37,0,8,.12,10.9.36,2.89.24,5.52.73,7.88,1.45,2.97.91,5.33,2.33,7.08,4.25,1.74,1.92,2.61,4.27,2.61,7.07,0,2.55-.74,4.87-2.23,6.97-1.49,2.09-3.46,3.64-5.93,4.63v.28c1.56.21,3.02.6,4.38,1.15,1.36.55,2.57,1.29,3.65,2.23,1.59,1.21,2.76,2.62,3.51,4.24.75,1.62,1.13,3.5,1.13,5.65ZM175.47,62.12c0-1.23-.24-2.3-.72-3.22-.48-.91-1.14-1.74-1.97-2.49-.72-.62-1.69-1.13-2.9-1.53-1.21-.4-2.51-.6-3.9-.6-1.07,0-1.96.01-2.65.04-.7.03-1.13.04-1.29.04l-1.13-5.11c1.42-.05,2.75-.26,3.98-.62,1.23-.36,2.26-.84,3.1-1.43.88-.67,1.61-1.5,2.19-2.48.58-.98.86-2.18.86-3.61,0-1.21-.32-2.32-.94-3.35-.63-1.02-1.49-1.83-2.59-2.42-.94-.46-2.04-.79-3.32-1.01-1.27-.21-2.62-.32-4.04-.32-.72,0-1.47.01-2.23.04-.76.03-1.28.04-1.55.04-.05,2.71-.09,5.71-.1,9.02-.01,3.3-.02,6.23-.02,8.77s.01,6.26.04,10.89c.03,4.63.04,7.13.04,7.51.38,0,.94.02,1.71.06s1.63.06,2.59.06c2.09,0,4.11-.11,6.05-.34,1.94-.23,3.56-.7,4.84-1.43,1.23-.64,2.2-1.53,2.89-2.65.7-1.13,1.05-2.41,1.05-3.86Z"/>
        <path class="cls-1" d="M238.02,79.49c-1.02,0-3.65-.01-7.9-.04-4.25-.03-8.36-.04-12.32-.04-3.16,0-6.25.01-9.27.04-3.02.03-5.94.04-8.78.04.03-4.51.06-9.36.1-14.56.04-5.2.06-9.76.06-13.68,0-7.05-.02-12.69-.06-16.92-.04-4.22-.07-7.11-.1-8.67h13.35c-.03,3.24-.05,6.86-.08,10.85-.03,3.99-.04,7.72-.04,11.18,0,5.15.01,9.75.04,13.81.03,4.06.04,6.4.04,7.02,1.2,0,2.58,0,4.13.02,1.55.01,2.94.02,4.17.02,3.53,0,7-.01,10.4-.04,3.4-.03,5.49-.04,6.26-.04v11.02Z"/>
        <path class="cls-1" d="M296.19,25.66c0,5.01-.02,8.97-.06,11.86-.04,2.89-.06,5.55-.06,7.96,0,3.06,0,5.69.02,7.9s.02,4.11.02,5.69c0,3.67-.62,6.84-1.87,9.51-1.25,2.67-2.94,4.87-5.09,6.61-2.44,1.96-5.09,3.39-7.94,4.3-2.85.91-6.19,1.37-9.99,1.37-4.23,0-7.79-.52-10.67-1.55-2.88-1.03-5.37-2.45-7.46-4.24-2.22-1.85-3.91-4.09-5.07-6.73-1.15-2.64-1.73-5.8-1.73-9.47,0-1.58,0-3.48.02-5.69.01-2.21.02-4.84.02-7.9,0-2.65-.02-5.33-.06-8.02-.04-2.69-.06-6.56-.06-11.6h13.31c-.03,2.28-.05,5.12-.08,8.52-.03,3.4-.04,7.24-.04,11.5,0,2.06,0,4.12.02,6.17.01,2.05.02,4.16.02,6.33,0,3.91,1.07,6.87,3.2,8.88,2.13,2.01,4.99,3.02,8.58,3.02,3.83,0,6.75-.98,8.74-2.94,2-1.96,3-4.94,3-8.96,0-2.17,0-4.33.02-6.49.01-2.16.02-4.16.02-6.01,0-4.31-.02-8.18-.06-11.6-.04-3.42-.06-6.22-.06-8.42h13.31Z"/>
        <path class="cls-1" d="M349.91,79.49c-.96,0-3.63-.01-8-.04-4.37-.03-8.71-.04-13.03-.04-3.73,0-7.36.01-10.89.04-3.54.03-6.11.04-7.72.04.03-1.42.06-4.51.1-9.27s.06-10.79.06-18.08c0-3.08-.01-7.01-.04-11.79-.03-4.77-.07-9.64-.12-14.6,1.82,0,4.42,0,7.78.02,3.36.01,6.75.02,10.15.02,4.64,0,9.18,0,13.63-.02,4.45-.01,6.97-.02,7.56-.02v9.93c-.46,0-2.21-.01-5.27-.04-3.06-.03-6.12-.04-9.21-.04-1.8,0-3.89,0-6.27.02-2.39.01-4.26.02-5.63.02,0,2.02-.01,4.14-.04,6.37-.03,2.23-.04,4.25-.04,6.05,1.39,0,3.17,0,5.33.02,2.16.01,3.93.02,5.33.02,3.46,0,6.69-.01,9.71-.04,3.01-.03,4.94-.04,5.77-.04v8c-.54,0-2.61-.01-6.23-.04-3.62-.03-6.65-.04-9.08-.04-1.37,0-3.16,0-5.37.02-2.21.01-4.03.02-5.45.02,0,3.14,0,5.82.02,8.06.01,2.24.03,4.07.06,5.49,1.61.03,3.75.05,6.43.06,2.68.01,5.11.02,7.28.02,3.06,0,5.83-.01,8.32-.04,2.49-.03,4.11-.04,4.87-.04v9.97Z"/>
        <path class="cls-1" d="M396.02,77.6c-.03.21-.07.55-.14,1.01-.07.46-.13.99-.18,1.61h-1.49c-6.14,0-11.58-.82-16.34-2.47-4.76-1.65-8.66-4.04-11.72-7.18-2.12-2.17-3.8-4.77-5.04-7.8-1.25-3.03-1.87-6.49-1.87-10.37,0-3.48.61-6.67,1.83-9.57s2.82-5.4,4.8-7.52c2.89-3.11,6.77-5.57,11.64-7.4,4.86-1.82,10.06-2.73,15.58-2.73h1.73c0,.27.01.68.04,1.23s.05,1.01.08,1.39h-1.29c-4.23,0-8.05.49-11.44,1.47-3.39.98-6.35,2.22-8.86,3.72-3.24,1.96-5.87,4.59-7.88,7.9-2.01,3.31-3.01,7.19-3.01,11.64s.96,8.54,2.87,11.8,4.32,5.81,7.22,7.66c3.32,2.15,6.78,3.63,10.37,4.44,3.59.82,7.37,1.23,11.34,1.23h.72c.32,0,.67-.01,1.04-.04Z"/>
        <path class="cls-1" d="M451.74,52.59c0,4.26-.62,8.15-1.87,11.66-1.25,3.51-3.13,6.62-5.65,9.33-2.31,2.47-4.83,4.31-7.58,5.53-2.75,1.22-5.86,1.83-9.35,1.83s-6.68-.64-9.59-1.91c-2.91-1.27-5.54-3.25-7.9-5.93-2.36-2.68-4.12-5.74-5.29-9.17s-1.75-7.18-1.75-11.26c0-4.5.66-8.53,1.97-12.08,1.31-3.55,3.39-6.8,6.23-9.75,2.09-2.17,4.54-3.82,7.36-4.95,2.81-1.13,5.8-1.69,8.96-1.69,3.35,0,6.41.58,9.19,1.75s5.35,3.04,7.74,5.61c2.49,2.68,4.37,5.75,5.63,9.21s1.89,7.4,1.89,11.82ZM448.52,52.19c0-3.99-.67-7.71-2.01-11.14-1.34-3.43-3.2-6.34-5.59-8.72-2.01-2.01-4.18-3.45-6.51-4.32-2.33-.87-4.72-1.31-7.16-1.31-2.63,0-5.04.43-7.26,1.29-2.21.86-4.3,2.24-6.25,4.14-2.47,2.41-4.38,5.37-5.73,8.88-1.35,3.51-2.03,7.38-2.03,11.62s.62,7.86,1.85,11.2,3.1,6.29,5.59,8.86c1.79,1.88,3.89,3.3,6.27,4.28,2.38.98,4.9,1.47,7.56,1.47,2.49,0,4.92-.46,7.3-1.37,2.37-.91,4.46-2.29,6.25-4.14,2.6-2.71,4.54-5.65,5.81-8.82,1.27-3.18,1.91-7.15,1.91-11.92Z"/>
        <path class="cls-1" d="M502.85,78.48l-2.37,1.93c-.62-.75-2.67-3.32-6.17-7.7-3.5-4.39-8.16-10.36-14-17.92l.04-.36c1.5-.46,2.94-1.06,4.32-1.81,1.38-.75,2.74-1.8,4.08-3.14.99-.99,1.8-2.18,2.41-3.56s.92-3.1.92-5.17c0-2.49-.59-4.65-1.77-6.48-1.18-1.82-2.76-3.25-4.74-4.27-1.47-.75-3.21-1.27-5.21-1.57-2-.3-4.08-.44-6.25-.44-1.05,0-2.23.02-3.54.06-1.31.04-2.12.06-2.41.06-.03,4.99-.05,9.92-.06,14.81-.01,4.88-.02,8.13-.02,9.74,0,3.67.01,8.66.04,14.97.03,6.3.04,10.26.04,11.87h-3.22c0-1.61.01-4.73.04-9.35.03-4.63.04-10.39.04-17.28,0-1.34-.01-3.8-.04-7.38-.03-3.58-.04-10.19-.04-19.81.27,0,1.51-.03,3.72-.08,2.21-.05,4.27-.08,6.17-.08,2.17,0,4.35.17,6.55.5,2.2.34,4.14.89,5.83,1.67,2.36,1.07,4.29,2.74,5.81,5.01,1.51,2.27,2.27,4.79,2.27,7.58,0,3.97-1.07,7.17-3.2,9.61-2.13,2.44-4.69,4.26-7.66,5.47v.2c3.29,4.32,7.08,9.11,11.35,14.38,4.27,5.27,6.62,8.12,7.05,8.55Z"/>
        <path class="cls-1" d="M550.41,78.48l-2.37,1.93c-.62-.75-2.67-3.32-6.17-7.7-3.5-4.39-8.16-10.36-14-17.92l.04-.36c1.5-.46,2.94-1.06,4.32-1.81,1.38-.75,2.74-1.8,4.08-3.14.99-.99,1.8-2.18,2.41-3.56s.92-3.1.92-5.17c0-2.49-.59-4.65-1.77-6.48-1.18-1.82-2.76-3.25-4.74-4.27-1.47-.75-3.21-1.27-5.21-1.57-2-.3-4.08-.44-6.25-.44-1.05,0-2.23.02-3.54.06-1.31.04-2.12.06-2.41.06-.03,4.99-.05,9.92-.06,14.81-.01,4.88-.02,8.13-.02,9.74,0,3.67.01,8.66.04,14.97.03,6.3.04,10.26.04,11.87h-3.22c0-1.61.01-4.73.04-9.35.03-4.63.04-10.39.04-17.28,0-1.34-.01-3.8-.04-7.38-.03-3.58-.04-10.19-.04-19.81.27,0,1.51-.03,3.72-.08,2.21-.05,4.27-.08,6.17-.08,2.17,0,4.35.17,6.55.5,2.2.34,4.14.89,5.83,1.67,2.36,1.07,4.29,2.74,5.81,5.01,1.51,2.27,2.27,4.79,2.27,7.58,0,3.97-1.07,7.17-3.2,9.61-2.13,2.44-4.69,4.26-7.66,5.47v.2c3.29,4.32,7.08,9.11,11.35,14.38,4.27,5.27,6.62,8.12,7.05,8.55Z"/>
        <path class="cls-1" d="M563.42,79.49h-3.22c0-1.61.01-4.48.04-8.6.03-4.13.04-10.05.04-17.77,0-3.06-.01-7.06-.04-12.02-.03-4.96-.04-10.1-.04-15.44h3.22c0,3.83-.01,8.29-.04,13.37s-.04,9.23-.04,12.44c0,8.15.01,14.45.04,18.92s.04,7.5.04,9.11Z"/>
        <path class="cls-1" d="M622.8,52.88c0,4.45-1.03,8.48-3.1,12.08-2.06,3.6-4.93,6.6-8.6,8.99-3.19,1.98-6.55,3.44-10.07,4.36-3.52.92-7.63,1.39-12.32,1.39-1.13,0-2.49-.01-4.08-.04-1.6-.03-2.75-.05-3.48-.08,0-1.23.01-4.03.04-8.4.03-4.37.04-10.55.04-18.53,0-5.07-.01-10.16-.04-15.28-.03-5.12-.04-9.02-.04-11.7.64-.03,1.55-.04,2.71-.04h3.36c5.23,0,9.9.52,14.03,1.55,4.13,1.03,7.69,2.55,10.69,4.56,3.64,2.41,6.37,5.41,8.16,8.99,1.79,3.58,2.69,7.63,2.69,12.16ZM619.58,52.88c0-4.07-.81-7.73-2.43-10.98-1.62-3.24-4.21-6-7.78-8.28-2.92-1.85-6.19-3.22-9.81-4.1-3.62-.88-7.76-1.33-12.42-1.33h-2.77c0,2.17-.01,5.17-.04,9.01-.03,3.83-.04,7.76-.04,11.78,0,6.92,0,12.5.02,16.76.01,4.26.03,8.05.06,11.38h2.77c4.34,0,8.3-.37,11.88-1.11,3.58-.74,6.75-1.96,9.51-3.68,3.7-2.3,6.47-5.11,8.3-8.42,1.84-3.31,2.75-6.99,2.75-11.04Z"/>
        <path class="cls-1" d="M680.21,52.59c0,4.26-.62,8.15-1.87,11.66-1.25,3.51-3.13,6.62-5.65,9.33-2.31,2.47-4.83,4.31-7.58,5.53-2.75,1.22-5.86,1.83-9.35,1.83s-6.68-.64-9.59-1.91c-2.91-1.27-5.54-3.25-7.9-5.93-2.36-2.68-4.12-5.74-5.29-9.17s-1.75-7.18-1.75-11.26c0-4.5.66-8.53,1.97-12.08,1.31-3.55,3.39-6.8,6.23-9.75,2.09-2.17,4.54-3.82,7.36-4.95,2.81-1.13,5.8-1.69,8.96-1.69,3.35,0,6.41.58,9.19,1.75s5.35,3.04,7.74,5.61c2.49,2.68,4.37,5.75,5.63,9.21s1.89,7.4,1.89,11.82ZM676.99,52.19c0-3.99-.67-7.71-2.01-11.14-1.34-3.43-3.2-6.34-5.59-8.72-2.01-2.01-4.18-3.45-6.51-4.32-2.33-.87-4.72-1.31-7.16-1.31-2.63,0-5.04.43-7.26,1.29-2.21.86-4.3,2.24-6.25,4.14-2.47,2.41-4.38,5.37-5.73,8.88-1.35,3.51-2.03,7.38-2.03,11.62s.62,7.86,1.85,11.2,3.1,6.29,5.59,8.86c1.79,1.88,3.89,3.3,6.27,4.28,2.38.98,4.9,1.47,7.56,1.47,2.49,0,4.92-.46,7.3-1.37,2.37-.91,4.46-2.29,6.25-4.14,2.6-2.71,4.54-5.65,5.81-8.82,1.27-3.18,1.91-7.15,1.91-11.92Z"/>
        <path class="cls-1" d="M731.32,78.48l-2.37,1.93c-.62-.75-2.67-3.32-6.17-7.7-3.5-4.39-8.16-10.36-14-17.92l.04-.36c1.5-.46,2.94-1.06,4.32-1.81,1.38-.75,2.74-1.8,4.08-3.14.99-.99,1.8-2.18,2.41-3.56s.92-3.1.92-5.17c0-2.49-.59-4.65-1.77-6.48-1.18-1.82-2.76-3.25-4.74-4.27-1.47-.75-3.21-1.27-5.21-1.57-2-.3-4.08-.44-6.25-.44-1.05,0-2.23.02-3.54.06-1.31.04-2.12.06-2.41.06-.03,4.99-.05,9.92-.06,14.81-.01,4.88-.02,8.13-.02,9.74,0,3.67.01,8.66.04,14.97.03,6.3.04,10.26.04,11.87h-3.22c0-1.61.01-4.73.04-9.35.03-4.63.04-10.39.04-17.28,0-1.34-.01-3.8-.04-7.38-.03-3.58-.04-10.19-.04-19.81.27,0,1.51-.03,3.72-.08,2.21-.05,4.27-.08,6.17-.08,2.17,0,4.35.17,6.55.5,2.2.34,4.14.89,5.83,1.67,2.36,1.07,4.29,2.74,5.81,5.01,1.51,2.27,2.27,4.79,2.27,7.58,0,3.97-1.07,7.17-3.2,9.61-2.13,2.44-4.69,4.26-7.66,5.47v.2c3.29,4.32,7.08,9.11,11.35,14.38,4.27,5.27,6.62,8.12,7.05,8.55Z"/>
      </g>
      <image width="500" height="500" transform="scale(.21)" xlink:href="../../../../Blue Corridor-Logo-Charles/1.png"/>
    </g>
  </g>
</svg>